<svg xmlns="http://www.w3.org/2000/svg" viewBox="0 0 2400 1500">
  <rect width="2400" height="1500" fill="#f5ead8"></rect>
  <circle id="sun" cx="1880" cy="300" r="150" fill="#c67139"></circle>
  <circle cx="1880" cy="300" r="196" fill="none" stroke="#c67139" stroke-width="8" opacity=".3"></circle>
  <g id="mesa">
    <path d="M180,640 L280,480 L560,480 L640,640 Z" fill="#d8b98c"></path>
    <path d="M700,640 L760,540 L920,540 L970,640 Z" fill="#d8b98c"></path>
  </g>
  <g id="dunes">
    <path d="M0,640 C420,560 820,700 1260,630 C1700,562 2080,690 2400,620 L2400,1500 L0,1500 Z" fill="#ecd9b3"></path>
    <path d="M0,880 C460,800 880,930 1320,868 C1760,808 2120,920 2400,858 L2400,1500 L0,1500 Z" fill="#e0c493"></path>
    <path d="M0,1110 C440,1040 900,1160 1340,1102 C1780,1046 2140,1150 2400,1096 L2400,1500 L0,1500 Z" fill="#d1ab74"></path>
    <path d="M0,1320 C480,1258 940,1360 1400,1312 C1840,1268 2180,1352 2400,1308 L2400,1500 L0,1500 Z" fill="#c1955e"></path>
  </g>
  <g id="dune-lines" fill="none" stroke="#b98f5e" stroke-width="9" stroke-linecap="round" opacity=".6">
    <path d="M300,760 q140,-26 280,-8"></path>
    <path d="M1500,740 q150,-28 300,-6"></path>
    <path d="M640,1000 q130,-24 260,-6"></path>
    <path d="M1820,980 q140,-24 280,-4"></path>
  </g>
  <g id="saguaro-far">
    <path d="M1180,868 L1180,700 M1180,760 C1120,760 1120,690 1120,668 M1180,790 C1236,790 1236,724 1236,700" fill="none" stroke="#8a9a6c" stroke-width="40" stroke-linecap="round"></path>
  </g>
  <g id="saguaro-near">
    <path d="M420,1330 L420,1030 M420,1140 C330,1140 330,1030 330,990 M420,1200 C505,1200 505,1090 505,1050" fill="none" stroke="#7a8a5e" stroke-width="64" stroke-linecap="round"></path>
    <g fill="none" stroke="#66774e" stroke-width="7" stroke-linecap="round" opacity=".7">
      <path d="M404,1080 L404,1290"></path><path d="M436,1080 L436,1290"></path>
    </g>
    <circle cx="420" cy="1006" r="20" fill="#c67139"></circle>
  </g>
  <g id="rocks-scrub">
    <ellipse cx="1720" cy="1380" rx="120" ry="52" fill="#ab7f4a"></ellipse>
    <ellipse cx="1830" cy="1408" rx="76" ry="34" fill="#966c3c"></ellipse>
    <circle cx="960" cy="1392" r="46" fill="#7a8a5e"></circle>
    <circle cx="1020" cy="1404" r="32" fill="#66774e"></circle>
    <circle cx="2200" cy="1250" r="38" fill="#7a8a5e"></circle>
    <circle cx="2252" cy="1262" r="26" fill="#66774e"></circle>
    <ellipse cx="150" cy="1440" rx="90" ry="38" fill="#966c3c"></ellipse>
  </g>
  <g id="birds" fill="none" stroke="#8a6f4d" stroke-width="8" stroke-linecap="round">
    <path d="M620,290 q30,-24 60,0 q30,-24 60,0"></path>
    <path d="M840,360 q24,-20 48,0 q24,-20 48,0"></path>
  </g>
</svg>