<svg xmlns="http://www.w3.org/2000/svg" viewBox="0 0 2400 1500">
  <rect width="2400" height="1500" fill="#f5ead8"></rect>
  <circle cx="480" cy="270" r="120" fill="#eab557"></circle>
  <g id="clouds" fill="#fdf8ee">
    <g><ellipse cx="1500" cy="260" rx="150" ry="52"></ellipse><ellipse cx="1610" cy="230" rx="100" ry="44"></ellipse><ellipse cx="1400" cy="236" rx="90" ry="40"></ellipse></g>
    <g><ellipse cx="2100" cy="420" rx="120" ry="42"></ellipse><ellipse cx="2190" cy="396" rx="80" ry="34"></ellipse></g>
    <g><ellipse cx="900" cy="180" rx="100" ry="36"></ellipse><ellipse cx="975" cy="158" rx="66" ry="28"></ellipse></g>
  </g>
  <g id="hills">
    <path d="M0,700 C400,600 800,720 1200,660 C1600,600 2000,700 2400,640 L2400,1500 L0,1500 Z" fill="#a9b787"></path>
    <path d="M0,940 C440,850 880,970 1320,905 C1760,845 2120,950 2400,890 L2400,1500 L0,1500 Z" fill="#8fa06c"></path>
    <path d="M0,1160 C460,1080 920,1190 1360,1130 C1800,1075 2160,1170 2400,1118 L2400,1500 L0,1500 Z" fill="#7a8a5e"></path>
    <path d="M0,1350 C480,1288 960,1385 1420,1338 C1860,1295 2200,1372 2400,1332 L2400,1500 L0,1500 Z" fill="#66774e"></path>
  </g>
  <g id="tree">
    <path d="M1960,930 L1960,790" stroke="#8a6f4d" stroke-width="34" stroke-linecap="round" fill="none"></path>
    <circle cx="1960" cy="700" r="120" fill="#6d9a72"></circle>
    <circle cx="1878" cy="748" r="66" fill="#6d9a72"></circle>
    <circle cx="2044" cy="748" r="66" fill="#6d9a72"></circle>
    <circle cx="1920" cy="672" r="14" fill="#c67139"></circle>
    <circle cx="2000" cy="710" r="14" fill="#c67139"></circle>
  </g>
  <g id="grass-blades" fill="none" stroke-linecap="round">
    <g stroke="#66774e" stroke-width="14">
      <path d="M300,1240 q-14,-70 8,-120"></path><path d="M350,1250 q10,-64 -6,-110"></path>
      <path d="M1150,1200 q-12,-66 10,-116"></path><path d="M1200,1210 q10,-60 -8,-104"></path>
      <path d="M2050,1220 q-12,-64 8,-110"></path>
    </g>
    <g stroke="#4d5c3a" stroke-width="16">
      <path d="M160,1460 q-16,-84 10,-140"></path><path d="M220,1470 q12,-76 -8,-128"></path>
      <path d="M700,1440 q-14,-80 10,-134"></path><path d="M760,1452 q12,-72 -8,-122"></path>
      <path d="M1450,1450 q-16,-82 10,-138"></path><path d="M1510,1462 q12,-74 -8,-124"></path>
      <path d="M2180,1440 q-14,-80 10,-132"></path><path d="M2240,1454 q12,-72 -8,-120"></path>
    </g>
  </g>
  <g id="flowers">
    <g><path d="M560,1330 L560,1240" stroke="#4d5c3a" stroke-width="10" stroke-linecap="round"></path><circle cx="560" cy="1218" r="30" fill="#c67139"></circle><circle cx="560" cy="1218" r="12" fill="#f5ead8"></circle></g>
    <g><path d="M1330,1300 L1330,1224" stroke="#4d5c3a" stroke-width="9" stroke-linecap="round"></path><circle cx="1330" cy="1204" r="26" fill="#d98f5f"></circle><circle cx="1330" cy="1204" r="10" fill="#f5ead8"></circle></g>
    <g><path d="M1940,1360 L1940,1280" stroke="#4d5c3a" stroke-width="10" stroke-linecap="round"></path><circle cx="1940" cy="1258" r="28" fill="#c67139"></circle><circle cx="1940" cy="1258" r="11" fill="#f5ead8"></circle></g>
    <circle cx="880" cy="1120" r="14" fill="#fdf8ee"></circle>
    <circle cx="1700" cy="1060" r="12" fill="#fdf8ee"></circle>
    <circle cx="440" cy="1050" r="12" fill="#fdf8ee"></circle>
  </g>
</svg>