<svg xmlns="http://www.w3.org/2000/svg" viewBox="0 0 1024 1024"><defs><clipPath id="c"><rect x="16" y="16" width="992" height="992" rx="224"></rect></clipPath></defs><rect x="16" y="16" width="992" height="992" rx="224" fill="#f6ecd9"></rect><g clip-path="url(#c)"><circle cx="512" cy="1290" r="640" fill="#6ea9b9" opacity=".26"></circle><path d="M512,470 C330,470 218,610 218,760 C218,890 340,940 512,940 C684,940 806,890 806,760 C806,610 694,470 512,470 Z" fill="#c9a878"></path><path d="M300,650 q-34,44 -40,96" fill="none" stroke="#8a6f4d" stroke-width="22" stroke-linecap="round"></path><path d="M724,650 q34,44 40,96" fill="none" stroke="#8a6f4d" stroke-width="22" stroke-linecap="round"></path><path d="M262,780 q-16,34 -14,64" fill="none" stroke="#8a6f4d" stroke-width="20" stroke-linecap="round"></path><path d="M762,780 q16,34 14,64" fill="none" stroke="#8a6f4d" stroke-width="20" stroke-linecap="round"></path><path d="M512,660 C440,660 402,730 410,808 C416,872 460,908 512,908 C564,908 608,872 614,808 C622,730 584,660 512,660 Z" fill="#f6ecd9"></path><ellipse cx="452" cy="922" rx="58" ry="26" fill="#c9a878"></ellipse><ellipse cx="572" cy="922" rx="58" ry="26" fill="#c9a878"></ellipse><g transform="rotate(-9 512 430)"><path d="M368,330 L332,128 L500,238 Z" fill="#c9a878"></path><path d="M388,318 L364,180 L474,254 Z" fill="#d97f57" opacity=".5"></path><g transform="rotate(34 668 260)"><path d="M646,332 L692,130 L520,238 Z" fill="#c9a878"></path><path d="M630,318 L660,182 L546,254 Z" fill="#d97f57" opacity=".5"></path></g><circle cx="512" cy="430" r="244" fill="#c9a878"></circle><path d="M512,196 L494,286 L530,286 Z" fill="#8a6f4d"></path><path d="M428,210 L424,296 L458,284 Z" fill="#8a6f4d"></path><path d="M596,210 L600,296 L566,284 Z" fill="#8a6f4d"></path><ellipse cx="512" cy="548" rx="118" ry="92" fill="#f6ecd9"></ellipse><circle cx="414" cy="438" r="52" fill="#eab557"></circle><circle cx="414" cy="442" r="26" fill="#45362a"></circle><circle cx="610" cy="438" r="52" fill="#eab557"></circle><circle cx="610" cy="442" r="26" fill="#45362a"></circle><path d="M482,520 L542,520 L512,562 Z" fill="#d97f57"></path><path d="M512,562 q-6,26 -38,28" fill="none" stroke="#45362a" stroke-width="10" stroke-linecap="round"></path><path d="M512,562 q6,26 38,28" fill="none" stroke="#45362a" stroke-width="10" stroke-linecap="round"></path><path d="M366,530 q-64,-6 -104,-26" fill="none" stroke="#45362a" stroke-width="9" stroke-linecap="round"></path><path d="M368,566 q-62,8 -100,30" fill="none" stroke="#45362a" stroke-width="9" stroke-linecap="round"></path><path d="M658,530 q64,-6 104,-26" fill="none" stroke="#45362a" stroke-width="9" stroke-linecap="round"></path><path d="M656,566 q62,8 100,30" fill="none" stroke="#45362a" stroke-width="9" stroke-linecap="round"></path></g><path d="M690,952 Q772,896 852,952 Q772,1008 690,952 Z" fill="#eab557"></path><path d="M844,952 L888,930 L888,974 Z" fill="#d97f57"></path><circle cx="728" cy="946" r="9" fill="#45362a"></circle></g></svg>