<svg xmlns="http://www.w3.org/2000/svg" viewBox="0 0 300 340"><g id="tail" data-part="tail" style="transform-box:view-box;transform-origin:238px 296px"><path d="M238,296 C282,288 292,246 276,214" fill="none" stroke="#8a6f4d" stroke-width="26" stroke-linecap="round"></path><path d="M274,262 q12,-8 12,-22" fill="none" stroke="#c9a878" stroke-width="9" stroke-linecap="round"></path></g><path d="M150,146 C88,146 50,196 50,252 C50,300 92,318 150,318 C208,318 250,300 250,252 C250,196 212,146 150,146 Z" fill="#c9a878"></path><path d="M78,212 q-12,16 -14,36" fill="none" stroke="#8a6f4d" stroke-width="9" stroke-linecap="round"></path><path d="M222,212 q12,16 14,36" fill="none" stroke="#8a6f4d" stroke-width="9" stroke-linecap="round"></path><path d="M150,212 C122,212 108,240 111,270 C113,296 130,310 150,310 C170,310 187,296 189,270 C192,240 178,212 150,212 Z" fill="#f6ecd9"></path><ellipse cx="126" cy="314" rx="22" ry="10" fill="#c9a878"></ellipse><ellipse cx="174" cy="314" rx="22" ry="10" fill="#c9a878"></ellipse><g id="head" data-part="head" style="transform-box:view-box;transform-origin:150px 138px"><g transform="rotate(-9 150 128)"><path d="M104,96 L92,32 L146,68 Z" fill="#c9a878"></path><path d="M110,92 L103,50 L138,72 Z" fill="#d97f57" opacity=".5"></path><g transform="rotate(34 200 74)"><path d="M194,98 L208,32 L154,68 Z" fill="#c9a878"></path><path d="M188,92 L197,50 L162,72 Z" fill="#d97f57" opacity=".5"></path></g><circle cx="150" cy="128" r="76" fill="#c9a878"></circle><path d="M150,56 L144,84 L156,84 Z" fill="#8a6f4d"></path><path d="M124,60 L123,88 L134,84 Z" fill="#8a6f4d"></path><path d="M176,60 L177,88 L166,84 Z" fill="#8a6f4d"></path><ellipse cx="150" cy="164" rx="37" ry="28" fill="#f6ecd9"></ellipse><circle cx="120" cy="130" r="16" fill="#eab557"></circle><circle cx="120" cy="131" r="8" fill="#45362a"></circle><circle cx="180" cy="130" r="16" fill="#eab557"></circle><circle cx="180" cy="131" r="8" fill="#45362a"></circle><path d="M141,156 L159,156 L150,169 Z" fill="#d97f57"></path><path d="M150,169 q-2,8 -12,9" fill="none" stroke="#45362a" stroke-width="3.5" stroke-linecap="round"></path><path d="M150,169 q2,8 12,9" fill="none" stroke="#45362a" stroke-width="3.5" stroke-linecap="round"></path><path d="M104,158 q-20,-2 -32,-8" fill="none" stroke="#45362a" stroke-width="3" stroke-linecap="round"></path><path d="M105,169 q-19,3 -30,9" fill="none" stroke="#45362a" stroke-width="3" stroke-linecap="round"></path><path d="M196,158 q20,-2 32,-8" fill="none" stroke="#45362a" stroke-width="3" stroke-linecap="round"></path><path d="M195,169 q19,3 30,9" fill="none" stroke="#45362a" stroke-width="3" stroke-linecap="round"></path></g></g></svg>